<svg width="21" height="22" viewBox="0 0 21 22" fill="none" xmlns="http://www.w3.org/2000/svg">
    <path d="M10.7593 20.2626C10.7593 20.2626 18.0185 15.2748 18.0185 8.86183C18.0185 6.97203 17.2537 5.15963 15.8923 3.82334C14.531 2.48705 12.6845 1.73633 10.7593 1.73633C8.83398 1.73633 6.98756 2.48705 5.62619 3.82334C4.26481 5.15963 3.5 6.97203 3.5 8.86183C3.5 15.2748 10.7593 20.2626 10.7593 20.2626Z"
          stroke="black" stroke-linecap="round" stroke-linejoin="round"/>
    <path d="M11.2193 10.4346C12.3975 10.4346 13.3526 9.47951 13.3526 8.3013C13.3526 7.12309 12.3975 6.16797 11.2193 6.16797C10.0411 6.16797 9.08594 7.12309 9.08594 8.3013C9.08594 9.47951 10.0411 10.4346 11.2193 10.4346Z"
          stroke="black" stroke-linecap="round" stroke-linejoin="round"/>
</svg>
