<svg width="410" height="82" viewBox="0 0 410 82" fill="none" xmlns="http://www.w3.org/2000/svg">
<path d="M105.612 67.4746C110.22 66.8851 113.188 64.0525 113.188 59.861C113.188 54.8507 108.957 51.9199 102.807 51.9199H92.2627V81.1791H96.7889V67.6547H102.348L109.974 81.1791H114.631L108.514 70.4709C107.76 69.1283 106.924 67.9166 105.628 67.4582L105.612 67.4746ZM102.266 66.8687H96.7889V52.7222H102.266C105.956 52.7222 108.596 55.0963 108.596 59.8282C108.596 64.5601 105.956 66.8687 102.266 66.8687Z" fill="white"/>
<path d="M141.641 63.9216C137.541 62.6608 134.77 61.8258 134.77 58.1909C134.77 54.556 137.279 52.3783 141.379 52.3783C143.888 52.3783 148.283 53.3607 149.496 58.7967H150.054V54.0975L149.627 53.6718C149.627 53.6718 143.675 51.6579 140.837 51.6579C134.179 51.6579 131.211 55.3419 131.211 59.9265C131.211 65.6571 135.868 66.9506 140.591 68.326C145.249 69.6686 147.922 70.5364 147.922 74.4332C147.922 78.3301 145.118 80.7861 140.509 80.7861C137.656 80.7861 132.359 79.0014 131.719 74.2695H131.129V79.4107L131.555 79.8364C131.555 79.8364 137.918 81.4247 140.936 81.4247C148.299 81.4247 151.481 77.7079 151.481 72.9433C151.481 67.1307 146.577 65.4607 141.641 63.9216Z" fill="white"/>
<path d="M364.311 63.9216C360.211 62.6608 357.44 61.8258 357.44 58.1909C357.44 54.556 359.949 52.3783 364.049 52.3783C366.558 52.3783 370.953 53.3607 372.167 58.7967H372.724V54.0975L372.298 53.6718C372.298 53.6718 366.345 51.6579 363.508 51.6579C356.85 51.6579 353.881 55.3419 353.881 59.9265C353.881 65.6571 358.539 66.9506 363.262 68.326C367.919 69.6686 370.592 70.5364 370.592 74.4332C370.592 78.3301 367.788 80.7861 363.18 80.7861C360.326 80.7861 355.029 79.0014 354.39 74.2695H353.799V79.4107L354.226 79.8364C354.226 79.8364 360.589 81.4247 363.606 81.4247C370.969 81.4247 374.151 77.7079 374.151 72.9433C374.151 67.1307 369.247 65.4607 364.311 63.9216Z" fill="white"/>
<path d="M210.322 51.9199H205.894V81.1791H210.322V51.9199Z" fill="white"/>
<path d="M338.384 51.9199H333.956V81.1791H338.384V51.9199Z" fill="white"/>
<path d="M169.717 81.1954H189.937V77.5278H189.56C189.232 78.3792 189.298 80.3931 184.755 80.3931H174.243V66.4922H185.362V65.6899H174.243V52.7222H184.755C189.314 52.7222 189.248 54.4741 189.576 55.3255H189.954V51.9199H169.733V81.1791L169.717 81.1954Z" fill="white"/>
<path d="M389.763 81.1954H409.984V77.5278H409.606C409.278 78.3792 409.344 80.3931 404.801 80.3931H394.289V66.4922H405.408V65.6899H394.289V52.7222H404.801C409.36 52.7222 409.295 54.4741 409.623 55.3255H410V51.9199H389.78V81.1791L389.763 81.1954Z" fill="white"/>
<path d="M249.877 77.5278C249.565 78.3465 249.483 80.3768 245.482 80.3768L236.003 80.4095V51.9363H231.477V81.1954H250.238V77.5278H249.86H249.877Z" fill="white"/>
<path d="M281.118 77.5278C280.806 78.3465 280.724 80.3768 276.723 80.3768L267.244 80.4095V51.9363H262.718V81.1954H281.478V77.5278H281.101H281.118Z" fill="white"/>
<path d="M18.9576 76.5945L6.77293 51.9363H2.5911V77.0857C2.5911 80.1476 1.01676 80.7206 0 80.7534V81.1954H5.95296V80.7534C4.9362 80.7206 3.36187 80.1476 3.36187 77.0857V55.7349L16.0714 81.1954H17.7441L29.4696 55.784V81.1954H33.9958V51.9363H30.3388L18.9576 76.5945Z" fill="white"/>
<path d="M63.1047 51.9199L52.1007 77.0693C50.7396 80.1803 49.4276 80.7042 48.4764 80.737V81.1791H53.9866V80.737C52.1991 80.737 51.9695 79.4926 52.9043 77.3477L54.8722 72.7959H68.6476L72.1079 81.1791H76.7653L64.4986 51.9199H63.1211H63.1047ZM55.2166 72.01L61.9403 56.5372L68.3196 72.01H55.2166Z" fill="white"/>
<path d="M304.897 51.9199L293.893 77.0693C292.532 80.1803 291.22 80.7042 290.268 80.737V81.1791H295.779V80.737C293.991 80.737 293.761 79.4926 294.696 77.3477L296.664 72.7959H310.44L313.9 81.1791H318.557L306.291 51.9199H304.913H304.897ZM297.009 72.01L303.732 56.5372L310.112 72.01H297.009Z" fill="white"/>
<path d="M199.416 16.3242C199.219 16.8482 199.17 18.1417 196.612 18.1417H190.577V0H187.69V18.6656H199.646V16.3242H199.416Z" fill="white"/>
<path d="M214.585 0L207.566 16.0295C206.697 18.0107 205.861 18.3545 205.254 18.3709V18.6492H208.763V18.3709C207.632 18.3709 207.468 17.585 208.075 16.2096L209.337 13.3115H218.127L220.341 18.6656H223.31L215.487 0H214.602L214.585 0ZM209.551 12.804L213.831 2.93083L217.898 12.804H209.534H209.551Z" fill="white"/>
</svg>
